<?xml version="1.0" encoding="utf-8"?>
<!-- Generator: Adobe Illustrator 23.0.1, SVG Export Plug-In . SVG Version: 6.00 Build 0)  -->
<svg version="1.1" id="Layer_1" xmlns="http://www.w3.org/2000/svg" xmlns:xlink="http://www.w3.org/1999/xlink" x="0px" y="0px"
	 viewBox="0 0 152 31.4" style="enable-background:new 0 0 152 31.4;" xml:space="preserve">
<style type="text/css">
	.st0{fill:#201600;}
</style>
<path class="st0" d="M14.7,31.2H8.3L0,8.1h6.8l4.8,17h0.1l4.9-17h6.5L14.7,31.2z"/>
<path class="st0" d="M43,26.6c0,2.7,0.6,3.3,1.3,3.6v0.9h-6.6c-0.3-1.1-0.4-1.5-0.6-2.7c-1.4,1.5-3.3,3.3-7.5,3.3
	c-3.5,0-7-1.9-7-6.7c0-4.5,2.9-6.8,6.7-7.4l5.5-0.8c1-0.1,2.2-0.6,2.2-1.8c0-2.6-2.4-2.7-4-2.7c-3.1,0-3.5,1.9-3.8,3.2h-5.9
	c0.7-7.1,5.6-8.1,10.4-8.1c3.3,0,9.2,1,9.2,6.7L43,26.6L43,26.6z M37.1,19.9c-0.6,0.5-1.6,0.8-4.1,1.3c-2.3,0.4-4.2,1-4.2,3.5
	c0,2.2,1.7,2.8,2.9,2.8c2.7,0,5.4-1.7,5.4-4.5V19.9z"/>
<path class="st0" d="M52.3,31.2h-6.1V0h6.1V31.2z"/>
<path class="st0" d="M63.4,7.9h3.8v4.3h-3.8v12.5c0,1.3,0.1,1.9,2.5,1.9c0.4,0,0.8-0.1,1.3-0.1v4.6c-1,0.1-1.9,0.1-2.9,0.1h-0.8
	c-5.3,0-6.3-2-6.3-5v-14h-3.1V7.9h3.1V1.6h6.1V7.9z"/>
<path class="st0" d="M90.6,24.4c-1.6,5.6-6.3,7.4-10.2,7.4c-6.5,0-11.5-3.1-11.5-12.6c0-2.8,1-11.7,11.1-11.7
	c4.6,0,10.9,2.2,10.9,12.7v1.1H74.9c0.1,1.7,0.6,5.6,5.4,5.6c1.7,0,3.4-0.9,3.9-2.5L90.6,24.4L90.6,24.4z M84.6,17.4
	c-0.3-3.8-2.7-4.9-4.7-4.9c-2.9,0-4.4,1.8-4.7,4.9H84.6z"/>
<path class="st0" d="M113.2,22.7c-0.2,2.4-2.1,9-10.6,9c-8.7,0-10.7-6.6-10.7-11.5c0-7.4,3.3-12.8,11.1-12.8c3.7,0,9.7,1.7,10.2,8.8
	h-6.2c-0.3-1.5-1.1-3.8-3.8-3.8H103c-3.8,0-4.9,3.8-4.9,6.7c0,2.5,0.1,7.5,4.7,7.5c3.1,0,4.2-2.9,4.2-4H113.2z"/>
<path class="st0" d="M136.6,31.2h-6.1V17.1c0-1.7-0.1-4.5-4-4.5c-2.7,0-4.8,1.8-4.8,5.4v13.2h-6.1V0h6.1v11.1h0.1
	c0.8-1.9,3.4-3.6,6.7-3.6c4.5,0,8.1,2.6,8.1,7.7L136.6,31.2L136.6,31.2z"/>
<path class="st0" d="M152,26.9h-12.2v4.3H152V26.9z"/>
</svg>
